<svg width="20" height="20" viewBox="0 0 20 20" fill="none" xmlns="http://www.w3.org/2000/svg">
<path fill-rule="evenodd" clip-rule="evenodd" d="M12.8651 10.415C12.8651 8.96763 11.6914 7.79395 10.244 7.79395C8.79667 7.79395 7.62299 8.96763 7.62299 10.415C7.62299 11.8624 8.79667 13.0361 10.244 13.0361C11.6914 13.0361 12.8651 11.8624 12.8651 10.415Z" stroke="#242331" stroke-width="1.25" stroke-linecap="round" stroke-linejoin="round"/>
<path fill-rule="evenodd" clip-rule="evenodd" d="M10.2438 16.8337C16.9482 16.8337 17.7464 14.8249 17.7464 10.4723C17.7464 7.42137 17.3429 5.78892 14.8017 5.08716C14.5683 5.01348 14.3096 4.87313 14.0999 4.64243C13.7613 4.27138 13.514 3.1319 12.6964 2.78716C11.8789 2.44331 8.59554 2.45909 7.79115 2.78716C6.98764 3.11611 6.72624 4.27138 6.38764 4.64243C6.17799 4.87313 5.9201 5.01348 5.68589 5.08716C3.14466 5.78892 2.74115 7.42137 2.74115 10.4723C2.74115 14.8249 3.5394 16.8337 10.2438 16.8337Z" stroke="#242331" stroke-width="1.25" stroke-linecap="round" stroke-linejoin="round"/>
<path d="M14.337 7.50016H14.3445" stroke="#242331" stroke-width="1.25" stroke-linecap="round" stroke-linejoin="round"/>
</svg>
