<svg width="20" height="20" viewBox="0 0 20 20" fill="none" xmlns="http://www.w3.org/2000/svg">
<path d="M10.0002 2.29199C4.21937 2.29199 2.29187 4.21949 2.29187 10.0003C2.29187 15.7812 4.21937 17.7087 10.0002 17.7087C15.781 17.7087 17.7085 15.7812 17.7085 10.0003" stroke="#242331" stroke-width="1.25" stroke-linecap="round" stroke-linejoin="round"/>
<path fill-rule="evenodd" clip-rule="evenodd" d="M16.2737 3.58685V3.58685C15.4462 2.85435 14.1821 2.93102 13.4496 3.75852C13.4496 3.75852 9.80873 7.87102 8.54623 9.29852C7.28206 10.7252 8.20873 12.696 8.20873 12.696C8.20873 12.696 10.2954 13.3569 11.5404 11.9502C12.7862 10.5435 16.4454 6.41102 16.4454 6.41102C17.1779 5.58352 17.1004 4.31935 16.2737 3.58685Z" stroke="#242331" stroke-width="1.25" stroke-linecap="round" stroke-linejoin="round"/>
<path d="M12.5076 4.83447L15.5034 7.48697" stroke="#242331" stroke-width="1.25" stroke-linecap="round" stroke-linejoin="round"/>
</svg>
