<svg width="20" height="20" viewBox="0 0 20 20" fill="none" xmlns="http://www.w3.org/2000/svg">
<path d="M5.83334 5V5.625C6.04231 5.625 6.23745 5.52056 6.35337 5.34669L5.83334 5ZM7.00523 3.24217L6.4852 2.89548V2.89548L7.00523 3.24217ZM12.9948 3.24217L13.5148 2.89548L12.9948 3.24217ZM14.1667 5L13.6466 5.34669C13.7626 5.52056 13.9577 5.625 14.1667 5.625V5ZM11.875 11.25C11.875 12.2855 11.0355 13.125 10 13.125V14.375C11.7259 14.375 13.125 12.9759 13.125 11.25H11.875ZM10 13.125C8.96447 13.125 8.125 12.2855 8.125 11.25H6.875C6.875 12.9759 8.27412 14.375 10 14.375V13.125ZM8.125 11.25C8.125 10.2145 8.96447 9.375 10 9.375V8.125C8.27412 8.125 6.875 9.52411 6.875 11.25H8.125ZM10 9.375C11.0355 9.375 11.875 10.2145 11.875 11.25H13.125C13.125 9.52411 11.7259 8.125 10 8.125V9.375ZM6.35337 5.34669L7.52526 3.58885L6.4852 2.89548L5.31331 4.65331L6.35337 5.34669ZM8.39198 3.125H11.608V1.875H8.39198V3.125ZM12.4748 3.58885L13.6466 5.34669L14.6867 4.65331L13.5148 2.89548L12.4748 3.58885ZM11.608 3.125C11.9563 3.125 12.2816 3.29906 12.4748 3.58885L13.5148 2.89548C13.0898 2.25794 12.3743 1.875 11.608 1.875V3.125ZM7.52526 3.58885C7.71845 3.29906 8.04369 3.125 8.39198 3.125V1.875C7.62575 1.875 6.91022 2.25794 6.4852 2.89548L7.52526 3.58885ZM17.7083 8.33333V14.1667H18.9583V8.33333H17.7083ZM15 16.875H5V18.125H15V16.875ZM2.29167 14.1667V8.33333H1.04167V14.1667H2.29167ZM5 16.875C3.50423 16.875 2.29167 15.6624 2.29167 14.1667H1.04167C1.04167 16.3528 2.81388 18.125 5 18.125V16.875ZM17.7083 14.1667C17.7083 15.6624 16.4958 16.875 15 16.875V18.125C17.1861 18.125 18.9583 16.3528 18.9583 14.1667H17.7083ZM15 5.625C16.4958 5.625 17.7083 6.83756 17.7083 8.33333H18.9583C18.9583 6.14721 17.1861 4.375 15 4.375V5.625ZM5.00001 4.375C2.81388 4.375 1.04167 6.14721 1.04167 8.33333H2.29167C2.29167 6.83756 3.50423 5.625 5.00001 5.625V4.375ZM5.00001 5.625H5.83334V4.375H5.00001V5.625ZM15 4.375H14.1667V5.625H15V4.375Z" fill="#242331"/>
<circle cx="10" cy="4.99984" r="0.833333" fill="#242331"/>
</svg>
