<svg width="21" height="21" viewBox="0 0 21 21" fill="none" xmlns="http://www.w3.org/2000/svg">
<path fill-rule="evenodd" clip-rule="evenodd" d="M18.7825 2.39866C18.7414 2.32166 18.6793 2.25866 18.6023 2.21754C16.777 1.24629 5.85788 4.63079 3.03338 6.26004C2.2975 6.68441 1.96938 7.18316 2.0595 7.73966C2.31938 9.35141 6.66201 10.5729 9.01838 11.1198L13.4433 6.69579C13.6996 6.43941 14.1153 6.43941 14.3716 6.69579C14.628 6.95216 14.628 7.36779 14.3716 7.62416L9.90388 12.0902C10.4648 14.471 11.6731 18.6842 13.2595 18.9397C13.319 18.9493 13.3785 18.9545 13.4371 18.9545C13.9219 18.9545 14.3594 18.622 14.7383 17.9658C16.3675 15.1439 19.7546 4.22654 18.7825 2.39866Z" fill="white"/>
</svg>
