<svg width="122" height="14" viewBox="0 0 122 14" fill="none" xmlns="http://www.w3.org/2000/svg">
<path d="M0 5.8457C0 5.29342 0.447715 4.8457 1 4.8457C1.55228 4.8457 2 5.29342 2 5.8457V8.69186C2 9.24414 1.55228 9.69186 1 9.69186C0.447715 9.69186 0 9.24414 0 8.69186V5.8457Z" fill="white"/>
<path d="M6 3.1543C6 2.60201 6.44772 2.1543 7 2.1543C7.55228 2.1543 8 2.60201 8 3.1543V11.9235C8 12.4758 7.55228 12.9235 7 12.9235C6.44772 12.9235 6 12.4758 6 11.9235V3.1543Z" fill="white"/>
<path d="M12 5.30859C12 4.75631 12.4477 4.30859 13 4.30859C13.5523 4.30859 14 4.75631 14 5.30859V9.77013C14 10.3224 13.5523 10.7701 13 10.7701C12.4477 10.7701 12 10.3224 12 9.77013V5.30859Z" fill="white"/>
<path d="M18 2.61328C18 2.061 18.4477 1.61328 19 1.61328C19.5523 1.61328 20 2.061 20 2.61328V12.4594C20 13.0117 19.5523 13.4594 19 13.4594C18.4477 13.4594 18 13.0117 18 12.4594V2.61328Z" fill="white"/>
<path d="M24 1.53711C24 0.984824 24.4477 0.537109 25 0.537109C25.5523 0.537109 26 0.984825 26 1.53711V12.9986C26 13.5509 25.5523 13.9986 25 13.9986C24.4477 13.9986 24 13.5509 24 12.9986V1.53711Z" fill="white"/>
<path d="M30 3.69141C30 3.13912 30.4477 2.69141 31 2.69141C31.5523 2.69141 32 3.13912 32 3.69141V10.8453C32 11.3975 31.5523 11.8453 31 11.8453C30.4477 11.8453 30 11.3975 30 10.8453V3.69141Z" fill="white"/>
<path d="M36 3.1543C36 2.60201 36.4477 2.1543 37 2.1543C37.5523 2.1543 38 2.60201 38 3.1543V11.3851C38 11.9374 37.5523 12.3851 37 12.3851C36.4477 12.3851 36 11.9374 36 11.3851V3.1543Z" fill="white"/>
<path d="M42 2.07617C42 1.52389 42.4477 1.07617 43 1.07617C43.5523 1.07617 44 1.52389 44 2.07617V12.4608C44 13.0131 43.5523 13.4608 43 13.4608C42.4477 13.4608 42 13.0131 42 12.4608V2.07617Z" fill="white"/>
<path d="M48 3.69141C48 3.13912 48.4477 2.69141 49 2.69141C49.5523 2.69141 50 3.13912 50 3.69141V10.8453C50 11.3975 49.5523 11.8453 49 11.8453C48.4477 11.8453 48 11.3975 48 10.8453V3.69141Z" fill="white"/>
<path d="M54 1.53711C54 0.984824 54.4477 0.537109 55 0.537109C55.5523 0.537109 56 0.984825 56 1.53711V12.9986C56 13.5509 55.5523 13.9986 55 13.9986C54.4477 13.9986 54 13.5509 54 12.9986V1.53711Z" fill="white"/>
<path d="M60 5.8457C60 5.29342 60.4477 4.8457 61 4.8457C61.5523 4.8457 62 5.29342 62 5.8457V8.69186C62 9.24414 61.5523 9.69186 61 9.69186C60.4477 9.69186 60 9.24414 60 8.69186V5.8457Z" fill="white"/>
<path d="M66 4.76758C66 4.21529 66.4477 3.76758 67 3.76758C67.5523 3.76758 68 4.21529 68 4.76758V9.76758C68 10.3199 67.5523 10.7676 67 10.7676C66.4477 10.7676 66 10.3199 66 9.76758V4.76758Z" fill="white"/>
<path d="M72 5.8457C72 5.29342 72.4477 4.8457 73 4.8457C73.5523 4.8457 74 5.29342 74 5.8457V8.69186C74 9.24414 73.5523 9.69186 73 9.69186C72.4477 9.69186 72 9.24414 72 8.69186V5.8457Z" fill="#B9BED7"/>
<path d="M78 4.77148C78 4.2192 78.4477 3.77148 79 3.77148C79.5523 3.77148 80 4.2192 80 4.77148V9.77148C80 10.3238 79.5523 10.7715 79 10.7715C78.4477 10.7715 78 10.3238 78 9.77148V4.77148Z" fill="#B9BED7"/>
<path d="M84 2.07617C84 1.52389 84.4477 1.07617 85 1.07617C85.5523 1.07617 86 1.52389 86 2.07617V12.4608C86 13.0131 85.5523 13.4608 85 13.4608C84.4477 13.4608 84 13.0131 84 12.4608V2.07617Z" fill="#B9BED7"/>
<path d="M90 3.69141C90 3.13912 90.4477 2.69141 91 2.69141C91.5523 2.69141 92 3.13912 92 3.69141V10.8453C92 11.3975 91.5523 11.8453 91 11.8453C90.4477 11.8453 90 11.3975 90 10.8453V3.69141Z" fill="#B9BED7"/>
<path d="M96 3.1543C96 2.60201 96.4477 2.1543 97 2.1543C97.5523 2.1543 98 2.60201 98 3.1543V11.3851C98 11.9374 97.5523 12.3851 97 12.3851C96.4477 12.3851 96 11.9374 96 11.3851V3.1543Z" fill="#B9BED7"/>
<path d="M102 1C102 0.447716 102.448 0 103 0C103.552 0 104 0.447715 104 1V13C104 13.5523 103.552 14 103 14C102.448 14 102 13.5523 102 13V1Z" fill="#B9BED7"/>
<path d="M108 3.69141C108 3.13912 108.448 2.69141 109 2.69141C109.552 2.69141 110 3.13912 110 3.69141V10.8453C110 11.3975 109.552 11.8453 109 11.8453C108.448 11.8453 108 11.3975 108 10.8453V3.69141Z" fill="#B9BED7"/>
<path d="M114 5.8457C114 5.29342 114.448 4.8457 115 4.8457C115.552 4.8457 116 5.29342 116 5.8457V8.69186C116 9.24414 115.552 9.69186 115 9.69186C114.448 9.69186 114 9.24414 114 8.69186V5.8457Z" fill="#B9BED7"/>
<path d="M120 4.77148C120 4.2192 120.448 3.77148 121 3.77148C121.552 3.77148 122 4.2192 122 4.77148V9.77148C122 10.3238 121.552 10.7715 121 10.7715C120.448 10.7715 120 10.3238 120 9.77148V4.77148Z" fill="#B9BED7"/>
</svg>
