<svg width="20" height="20" viewBox="0 0 20 20" fill="none" xmlns="http://www.w3.org/2000/svg">
<path d="M10.8333 1.6665V4.99984C10.8333 6.84079 12.3257 8.33317 14.1667 8.33317L17.5 8.33317M2.5 4.99984L2.5 14.9998C2.5 16.8408 3.99238 18.3332 5.83333 18.3332H14.1667C16.0076 18.3332 17.5 16.8408 17.5 14.9998V9.71388C17.5 8.82983 17.1488 7.98198 16.5237 7.35686L11.8096 2.64281C11.1845 2.01769 10.3367 1.6665 9.45262 1.6665L5.83333 1.6665C3.99238 1.6665 2.5 3.15889 2.5 4.99984Z" stroke="#242331" stroke-width="1.25" stroke-linejoin="round"/>
<path d="M4.91862 11.3599H6.23943C6.53728 11.3599 6.76433 11.3826 6.92058 11.4282C7.13054 11.4901 7.31039 11.5999 7.46013 11.7578C7.60987 11.9157 7.7238 12.1094 7.80193 12.3389C7.88005 12.5667 7.91911 12.8483 7.91911 13.1836C7.91911 13.4782 7.88249 13.7321 7.80925 13.9453C7.71973 14.2057 7.59196 14.4165 7.42595 14.5776C7.30062 14.6997 7.13135 14.7949 6.91814 14.8633C6.75863 14.9137 6.54542 14.939 6.27849 14.939H4.91862V11.3599ZM5.64128 11.9653V14.3359H6.18083C6.38265 14.3359 6.52833 14.3245 6.61784 14.3018C6.73503 14.2725 6.83187 14.2228 6.90837 14.1528C6.9865 14.0828 7.04997 13.9681 7.0988 13.8086C7.14763 13.6475 7.17204 13.4285 7.17204 13.1519C7.17204 12.8752 7.14763 12.6628 7.0988 12.5146C7.04997 12.3665 6.98161 12.251 6.89372 12.168C6.80583 12.085 6.69434 12.0288 6.55925 11.9995C6.45834 11.9767 6.26058 11.9653 5.96599 11.9653H5.64128Z" fill="#242331"/>
<path d="M8.38786 13.1714C8.38786 12.8068 8.44239 12.5008 8.55144 12.2534C8.63282 12.0711 8.74349 11.9076 8.88347 11.7627C9.02507 11.6178 9.17969 11.5104 9.34734 11.4404C9.57032 11.346 9.82748 11.2988 10.1188 11.2988C10.6462 11.2988 11.0677 11.4624 11.3835 11.7896C11.7009 12.1167 11.8595 12.5716 11.8595 13.1543C11.8595 13.7321 11.7025 14.1846 11.3884 14.5117C11.0742 14.8372 10.6543 15 10.1286 15C9.59636 15 9.17318 14.8381 8.85905 14.5142C8.54493 14.1886 8.38786 13.741 8.38786 13.1714ZM9.13249 13.147C9.13249 13.5522 9.22608 13.8599 9.41325 14.0698C9.60043 14.2782 9.83806 14.3823 10.1261 14.3823C10.4142 14.3823 10.6502 14.279 10.8342 14.0723C11.0197 13.8639 11.1125 13.5522 11.1125 13.1372C11.1125 12.7271 11.0221 12.4211 10.8415 12.2192C10.6624 12.0174 10.424 11.9165 10.1261 11.9165C9.82829 11.9165 9.58822 12.019 9.40593 12.2241C9.22364 12.4276 9.13249 12.7352 9.13249 13.147Z" fill="#242331"/>
<path d="M14.716 13.623L15.4167 13.8452C15.3092 14.2358 15.1302 14.5264 14.8796 14.7168C14.6305 14.9056 14.314 15 13.9299 15C13.4546 15 13.064 14.8381 12.758 14.5142C12.452 14.1886 12.299 13.7443 12.299 13.1812C12.299 12.5854 12.4528 12.1232 12.7604 11.7944C13.068 11.464 13.4725 11.2988 13.9738 11.2988C14.4116 11.2988 14.7673 11.4282 15.0407 11.687C15.2035 11.84 15.3255 12.0597 15.4069 12.3462L14.6916 12.5171C14.6493 12.3315 14.5606 12.1851 14.4255 12.0776C14.292 11.9702 14.1292 11.9165 13.9372 11.9165C13.6719 11.9165 13.4562 12.0117 13.2902 12.2021C13.1258 12.3926 13.0436 12.701 13.0436 13.1274C13.0436 13.5799 13.125 13.9022 13.2878 14.0942C13.4505 14.2863 13.6621 14.3823 13.9225 14.3823C14.1146 14.3823 14.2798 14.3213 14.4181 14.1992C14.5565 14.0771 14.6558 13.8851 14.716 13.623Z" fill="#242331"/>
</svg>
