<svg width="20" height="20" viewBox="0 0 20 20" fill="none" xmlns="http://www.w3.org/2000/svg">
<path d="M18.3333 11.6665L15.8841 9.9031C14.6115 8.98678 12.8722 9.08149 11.7066 10.1306L8.2934 13.2024C7.12775 14.2515 5.38849 14.3462 4.11583 13.4299L1.66666 11.6665M4.99999 18.3332H15C16.8409 18.3332 18.3333 16.8408 18.3333 14.9998V4.99984C18.3333 3.15889 16.8409 1.6665 15 1.6665H4.99999C3.15904 1.6665 1.66666 3.15889 1.66666 4.99984V14.9998C1.66666 16.8408 3.15904 18.3332 4.99999 18.3332ZM9.16666 7.08317C9.16666 8.23376 8.23392 9.1665 7.08332 9.1665C5.93273 9.1665 4.99999 8.23376 4.99999 7.08317C4.99999 5.93258 5.93273 4.99984 7.08332 4.99984C8.23392 4.99984 9.16666 5.93258 9.16666 7.08317Z" stroke="#242331" stroke-width="1.25" stroke-linecap="round"/>
</svg>
